<svg id="Layer_1" data-name="Layer 1" xmlns="http://www.w3.org/2000/svg" viewBox="0 0 317.8 212.06"><defs><style>.cls-1{fill:#0e306d;}</style></defs><path class="cls-1" d="M202,107.29a4.88,4.88,0,0,1-.46,2.27,2.88,2.88,0,0,1-1.33,1.32,4.39,4.39,0,0,1-2,.43,3.78,3.78,0,0,1-2.74-1,4,4,0,0,1-1-3V95.89h-3.06V107a9.19,9.19,0,0,0,.68,3.72,4.79,4.79,0,0,0,2.17,2.36,10,10,0,0,0,7.92,0,4.83,4.83,0,0,0,2.19-2.3,8.82,8.82,0,0,0,.68-3.62V95.89h-3Z"/><polygon class="cls-1" points="220.47 108.56 211.78 95.89 208.87 95.89 208.87 113.63 211.85 113.63 211.85 100.61 220.77 113.63 223.45 113.63 223.45 95.89 220.47 95.89 220.47 108.56"/><polygon class="cls-1" points="227.59 113.63 230.57 113.63 230.57 101.5 230.57 95.89 227.59 95.89 227.59 113.63"/><polygon class="cls-1" points="234.11 98.43 242.92 98.43 233.59 112.11 233.59 113.63 247.06 113.63 247.06 111.07 237.72 111.07 247.15 97.34 247.15 95.89 234.11 95.89 234.11 98.43"/><path class="cls-1" d="M258.87,95.89h-3.23l-6.38,17.74h3l1.62-4.45h6.77l1.58,4.45h3Zm-4.3,10.64,2.69-7.73,2.66,7.73Z"/><path class="cls-1" d="M161.33,131.25c-24.13-18.84-18.47-40-14.33-55.39l.07-.27c1.48-5.5,2.75-10.25,2.43-14.13a9.63,9.63,0,0,0-3.17-6.56A7.23,7.23,0,0,0,140.92,53a10.28,10.28,0,0,0-4.31,1.22C102.18,71.76,82.09,70.77,70.1,70.19l-.4,0c-4.8-.24-11.38-.57-14.52,2.42a5.64,5.64,0,0,0-1.73,4.27c0,2.3,2.66,5.45,2.95,5.79,17.06,20.53,17.76,51.32,18,62.91a40.12,40.12,0,0,0,.21,4.44,10.73,10.73,0,0,0,17.77,6.3c14.52-13.48,36.08-14.42,51.93-15.11,6.11-.27,11.39-.5,15.08-1.43l.4-.12a4.74,4.74,0,0,0,1.51-8.39ZM147.79,61.66c.29,3.52-.94,8.14-2.38,13.48l-.07.27c-2.73,10.19-6.07,22.8-1.52,35.7a99.1,99.1,0,0,0-20.35-19.89c18-20.37,21.7-30.42,22.37-34.33A8,8,0,0,1,147.79,61.66ZM137.4,55.77a8.85,8.85,0,0,1,3.65-1,5.39,5.39,0,0,1,3.23.8c0,1.77-1.21,11-22.2,34.67A110.3,110.3,0,0,0,96.81,77a114.18,114.18,0,0,0-17-4.84C92.3,72,110.53,69.44,137.4,55.77ZM55.17,76.86a4,4,0,0,1,1.19-3c1.81-1.71,5.43-2.09,8.89-2.09,1.54,0,3.06.08,4.36.14h.23A110.36,110.36,0,0,1,121.39,91c-3.87,4.33-8.36,9.12-13.64,14.44a123.52,123.52,0,0,0-11.84,13.73q-17.55-12.66-35-33.36c-1-1.46-2.07-2.88-3.22-4.26C56.73,80.4,55.17,78.12,55.17,76.86Zm21.16,72.82c-.11-.56-.14-2.15-.19-4.16-.22-10-.81-34-11.69-53.92A190.66,190.66,0,0,0,95.26,120C81.47,139,81.53,152.51,82,156.75A9,9,0,0,1,76.33,149.68Zm14.9,5.37a9,9,0,0,1-6,2.28,9.36,9.36,0,0,1-1.41-.12c-.4-2.72-1.42-16.4,12.84-36.17q22.83,16,45.74,18.52C126.59,140.26,105.7,141.62,91.23,155.05ZM159.34,138l-.3.08a32.81,32.81,0,0,1-4,.67c-19.19,1.15-38.5-5.05-57.76-18.58A122.67,122.67,0,0,1,109,106.63c5.35-5.38,9.9-10.24,13.82-14.64a97.41,97.41,0,0,1,23,23.79c2.89,5.68,7.44,11.37,14.51,16.88a3,3,0,0,1,1.21,2.42A3.07,3.07,0,0,1,159.34,138Z"/></svg>